<svg xmlns="http://www.w3.org/2000/svg" xmlns:xlink="http://www.w3.org/1999/xlink" viewBox="0 0 720 598"><defs><style>.cls-1{fill:#e8e8e8;}.cls-1,.cls-2,.cls-3,.cls-4,.cls-5{stroke:#000;stroke-miterlimit:10;}.cls-1,.cls-2,.cls-3{stroke-width:5.93px;}.cls-2{fill:url(#linear-gradient);}.cls-3{fill:url(#radial-gradient);}.cls-4{stroke-width:1.56px;fill:url(#radial-gradient-2);}.cls-5{stroke-width:1.63px;fill:url(#radial-gradient-3);}</style><linearGradient id="linear-gradient" x1="360" y1="286.06" x2="697.11" y2="286.06" gradientUnits="userSpaceOnUse"><stop offset="0" stop-color="#8c8c8c"/><stop offset="1" stop-color="#353535"/></linearGradient><radialGradient id="radial-gradient" cx="360" cy="544.76" r="239.75" gradientUnits="userSpaceOnUse"><stop offset="0" stop-color="#63fcff"/><stop offset="1" stop-color="#0086aa"/></radialGradient><radialGradient id="radial-gradient-2" cx="577.65" cy="310.02" r="213.08" gradientTransform="translate(-306.33) scale(0.91 1)" gradientUnits="userSpaceOnUse"><stop offset="0" stop-color="#00fcff"/><stop offset="1" stop-color="#0086aa"/></radialGradient><radialGradient id="radial-gradient-3" cx="539.69" cy="309.85" r="188.03" gradientTransform="matrix(1, 0, 0, 1, 0, 0)" xlink:href="#radial-gradient-2"/></defs><title>logoJam Session Box</title><g id="Layer_6" data-name="Layer 6"><path class="cls-1" d="M360,532.11l-337.11,23v-468L358.25,17A1.64,1.64,0,0,1,360,18.59Z"/><path class="cls-2" d="M360,532.11l337.11,23v-468L361.89,17A1.77,1.77,0,0,0,360,18.74Z"/><path class="cls-3" d="M22.89,555.15C22.89,556.33,360,581,360,581s337.11-25,337.11-25.89S360,508.47,360,508.47,22.89,554,22.89,555.15Z"/><path class="cls-4" d="M246,133.21l-51.55,3-2,231.17s-.74,33-6.77,42.73-9.73,15.3-18.66,15.3-27.24-4.2-27.24-47.29L89.49,381s-9.26,105.85,79.12,105.85S246,353.9,246,321.27Z"/><path class="cls-5" d="M574.85,241.28,626.11,244s7.62-111.1-85.92-111.1S456.3,234.06,456.3,234.06s-.75,53.63,45.29,83.27,73.7,40.48,73.7,75.24-33.08,34.21-33.08,34.21-39.28,7-39.28-57.37l-51.42-2.69s-8.89,120.12,87.37,120.12S628,403.07,628,385.95s-.9-60.16-62.45-99.21S509,245,509,223.61s17-30.37,32.64-30.37S574.85,200,574.85,241.28Z"/></g></svg>